<svg width="76" height="56" viewBox="0 0 76 56" fill="none" xmlns="http://www.w3.org/2000/svg">
<path d="M27.9322 0.00964828C27.9322 0.00964828 17.4126 0.730099 10.5329 6.2364C10.5006 6.24927 10.4619 6.26856 10.4296 6.28786C9.2357 7.38784 8.33863 9.09247 7.22859 11.5369C6.11855 13.9812 4.94397 17.1268 3.87265 20.6454C1.73646 27.6891 0.000403775 36.3345 0.000403775 44.4717C-0.00604955 44.7612 0.064942 45.0443 0.206923 45.2951C2.62062 49.5213 7.06079 52.0751 11.2041 53.6832C15.3474 55.2914 19.1745 55.9346 21.117 55.999C21.6656 56.0183 22.1883 55.7674 22.511 55.33L26.5382 49.7722C29.7844 50.5377 33.5921 51.0587 38 51.0587C42.4079 51.0587 46.2156 50.5377 49.4618 49.7722L53.489 55.33C53.8117 55.7674 54.3344 56.0183 54.883 55.999C56.8255 55.9346 60.6526 55.2914 64.7959 53.6832C68.9392 52.0751 73.3794 49.5213 75.7931 45.2951C75.9351 45.0443 76.0061 44.7612 75.9996 44.4717C75.9996 36.3345 74.2635 27.6891 72.1274 20.6454C71.056 17.1268 69.8815 13.9812 68.7714 11.5369C67.6614 9.09247 66.7643 7.38784 65.5704 6.28786C65.5381 6.26856 65.4994 6.24927 65.4671 6.2364C58.5874 0.730099 48.0678 0.00964828 48.0678 0.00964828C47.9452 -0.00321609 47.829 -0.00321609 47.7064 0.00964828C47.132 0.0868394 46.648 0.459931 46.4157 0.987403C46.4157 0.987403 45.8542 2.21603 45.4863 3.97213C42.2659 3.45752 39.5554 3.30314 38 3.30314C36.4446 3.30314 33.7341 3.45752 30.5137 3.97213C30.1458 2.21603 29.5843 0.987403 29.5843 0.987403C29.3004 0.344143 28.6356 -0.0482447 27.9322 0.00964828ZM26.8996 3.56044C27.0222 3.89494 27.1061 4.21013 27.2094 4.58966C23.4855 5.45162 19.4068 6.86036 15.5926 9.22112C14.9924 9.472 14.5988 10.0509 14.5794 10.7006C14.5665 11.3439 14.9343 11.9421 15.5152 12.2251C16.1025 12.5017 16.7995 12.4181 17.2964 12C24.9505 7.27205 34.6892 6.59663 38 6.59663C41.3108 6.59663 51.0495 7.27205 58.7036 12C59.2005 12.4181 59.8975 12.5017 60.4848 12.2251C61.0657 11.9421 61.4335 11.3439 61.4206 10.7006C61.4012 10.0509 61.0076 9.472 60.4074 9.22112C56.5932 6.86036 52.5145 5.45162 48.7906 4.58966C48.8939 4.21013 48.9778 3.89494 49.1004 3.56044C50.9849 3.79201 58.3099 4.7762 63.2986 8.70652C63.6213 9.00242 64.7443 10.6492 65.7769 12.9263C66.8095 15.2034 67.8937 18.1689 68.9263 21.5717C70.9399 28.2101 72.5662 36.3988 72.6437 43.9057C70.7656 46.9354 67.2419 49.1868 63.6084 50.5956C60.3041 51.8757 57.2192 52.4482 55.6058 52.6026L52.8178 48.8459C54.2376 48.3892 55.5154 47.8939 56.6384 47.405C60.8075 45.5782 63.0405 43.6484 63.0405 43.6484C63.7246 43.0373 63.7827 41.9888 63.1696 41.3069C62.5565 40.6251 61.5045 40.5672 60.8204 41.1783C60.8204 41.1783 59.0908 42.7542 55.296 44.4203C53.902 45.0314 52.2111 45.6361 50.2879 46.17C49.8426 46.1185 49.3973 46.2471 49.0488 46.5302C45.9704 47.2764 42.3111 47.7652 38 47.7652C33.6566 47.7652 29.9909 47.2313 26.8996 46.4787C26.5511 46.2471 26.1251 46.1507 25.7121 46.2214C23.7824 45.6875 22.1044 45.0314 20.704 44.4203C16.9092 42.7542 15.1796 41.1783 15.1796 41.1783C14.8053 40.8309 14.289 40.683 13.7856 40.7666C13.1467 40.8631 12.6175 41.3198 12.4432 41.9437C12.2625 42.5613 12.469 43.2303 12.9595 43.6484C12.9595 43.6484 15.1925 45.5782 19.3616 47.405C20.4846 47.8939 21.7624 48.3892 23.1822 48.8459L20.3942 52.6026C18.7808 52.4482 15.6959 51.8757 12.3916 50.5956C8.75812 49.1868 5.23438 46.9354 3.35635 43.9057C3.43379 36.3988 5.06013 28.2101 7.0737 21.5717C8.1063 18.1689 9.19052 15.2034 10.2231 12.9263C11.2557 10.6492 12.3787 9.00242 12.7014 8.70652C17.6901 4.7762 25.0151 3.79201 26.8996 3.56044ZM27.261 23.0641C23.0467 23.0641 19.8263 26.8786 19.8263 31.2978C19.8263 35.717 23.0467 39.5315 27.261 39.5315C31.4753 39.5315 34.6957 35.717 34.6957 31.2978C34.6957 26.8786 31.4753 23.0641 27.261 23.0641ZM48.739 23.0641C44.5247 23.0641 41.3043 26.8786 41.3043 31.2978C41.3043 35.717 44.5247 39.5315 48.739 39.5315C52.9533 39.5315 56.1737 35.717 56.1737 31.2978C56.1737 26.8786 52.9533 23.0641 48.739 23.0641ZM27.261 26.3576C29.4359 26.3576 31.3914 28.4417 31.3914 31.2978C31.3914 34.1539 29.4359 36.238 27.261 36.238C25.0861 36.238 23.1306 34.1539 23.1306 31.2978C23.1306 28.4417 25.0861 26.3576 27.261 26.3576ZM48.739 26.3576C50.9139 26.3576 52.8694 28.4417 52.8694 31.2978C52.8694 34.1539 50.9139 36.238 48.739 36.238C46.5641 36.238 44.6086 34.1539 44.6086 31.2978C44.6086 28.4417 46.5641 26.3576 48.739 26.3576Z" fill="#0052FF" fill-opacity="0.74"/>
</svg>
