<svg width="329" height="100" viewBox="0 0 329 100" fill="none" xmlns="http://www.w3.org/2000/svg">
<rect y="8.79102" width="329" height="91.2088" rx="15" fill="#0052FF" fill-opacity="0.67"/>
<rect width="329" height="91.2088" rx="15" fill="#0052FF"/>
<path d="M46.5801 58.6055H49.5098L50.2422 57.873V54.2109H53.9043L54.6367 53.4785V41.0273H59.0312V54.2109H55.3691L54.6367 54.9434V58.6055H50.9746L50.2422 59.3379V63H45.8477V59.3379L45.1152 58.6055H41.4531V41.0273H45.8477V57.873L46.5801 58.6055ZM67.8203 63H63.4258V41.0273H67.8203V63ZM76.6094 54.2109V58.6055H89.793V63H72.2148V41.0273H89.793V45.4219H76.6094V49.8164H85.3984V54.2109H76.6094ZM107.371 58.6055H111.766V41.0273H116.16V63H94.1875V41.0273H98.582V58.6055H102.977V49.8164H107.371V58.6055ZM151.316 63H133.738V41.0273H151.316V45.4219H138.133V58.6055H146.922V49.8164H151.316V63ZM155.711 41.0273H173.289V63H168.895V54.2109H160.105V63H155.711V41.0273ZM160.105 45.4219V49.8164H168.895V45.4219H160.105ZM177.684 41.0273H182.078V58.6055H195.262V63H177.684V41.0273ZM199.656 41.0273H204.051V58.6055H217.234V63H199.656V41.0273ZM226.023 54.2109V58.6055H239.207V63H221.629V41.0273H239.207V45.4219H226.023V49.8164H234.812V54.2109H226.023ZM252.391 45.4219H247.996V49.8164H252.391V45.4219ZM247.996 54.2109V63H243.602V41.0273H256.785V49.8164H261.18V63H256.785V54.2109H247.996ZM278.758 49.8164V41.0273H283.152V63H265.574V58.6055H278.758V54.2109H265.574V41.0273H269.969V49.8164H278.758Z" fill="white"/>
</svg>
