<svg width="928" height="192" viewBox="0 0 928 192" fill="none" xmlns="http://www.w3.org/2000/svg">
<path d="M52.9648 71.5156H35.0938V89.3867H52.9648V71.5156ZM17.2227 143V53.6445H70.8359V104.279L73.8145 107.258H88.707V143H17.2227ZM67.8574 107.258H35.0938V125.129H70.8359V110.236L67.8574 107.258ZM106.578 53.6445H178.062V143H160.191V107.258H124.449V143H106.578V53.6445ZM124.449 71.5156V89.3867H160.191V71.5156H124.449ZM249.547 107.258H195.934V53.6445H267.418V71.5156H213.805V89.3867H267.418V143H195.934V125.129H249.547V107.258ZM303.16 107.258V125.129H356.773V143H285.289V53.6445H356.773V71.5156H303.16V89.3867H338.902V107.258H303.16ZM428.258 68.5371L431.236 71.5156H446.129V143H374.645V53.6445H428.258V68.5371ZM425.279 71.5156H392.516V125.129H428.258V74.4941L425.279 71.5156ZM553.355 71.5156H535.484V89.3867H553.355V71.5156ZM517.613 143V53.6445H571.227V104.279L574.205 107.258H589.098V143H517.613ZM568.248 107.258H535.484V125.129H571.227V110.236L568.248 107.258ZM642.711 71.5156H624.84V89.3867H642.711V71.5156ZM624.84 107.258V143H606.969V53.6445H660.582V89.3867H678.453V143H660.582V107.258H624.84ZM714.195 143H696.324V53.6445H714.195V143ZM732.066 53.6445H803.551V143H785.68V107.258H749.938V143H732.066V53.6445ZM749.938 71.5156V89.3867H785.68V71.5156H749.938ZM839.293 143H821.422V53.6445H875.035V68.5371L878.014 71.5156H892.906V143H875.035V74.4941L872.057 71.5156H839.293V143Z" fill="black"/>
<path d="M52.9648 71.5156H64.9648V59.5156H52.9648V71.5156ZM35.0938 71.5156V59.5156H23.0938V71.5156H35.0938ZM35.0938 89.3867H23.0938V101.387H35.0938V89.3867ZM52.9648 89.3867V101.387H64.9648V89.3867H52.9648ZM17.2227 143H5.22266V155H17.2227V143ZM17.2227 53.6445V41.6445H5.22266V53.6445H17.2227ZM70.8359 53.6445H82.8359V41.6445H70.8359V53.6445ZM70.8359 104.279H58.8359V109.25L62.3507 112.765L70.8359 104.279ZM73.8145 107.258L65.3292 115.743L68.8439 119.258H73.8145V107.258ZM88.707 107.258H100.707V95.2578H88.707V107.258ZM88.707 143V155H100.707V143H88.707ZM67.8574 107.258L76.3427 98.7725L72.828 95.2578H67.8574V107.258ZM35.0938 107.258V95.2578H23.0938V107.258H35.0938ZM35.0938 125.129H23.0938V137.129H35.0938V125.129ZM70.8359 125.129V137.129H82.8359V125.129H70.8359ZM70.8359 110.236H82.8359V105.266L79.3212 101.751L70.8359 110.236ZM52.9648 59.5156H35.0938V83.5156H52.9648V59.5156ZM23.0938 71.5156V89.3867H47.0938V71.5156H23.0938ZM35.0938 101.387H52.9648V77.3867H35.0938V101.387ZM64.9648 89.3867V71.5156H40.9648V89.3867H64.9648ZM29.2227 143V53.6445H5.22266V143H29.2227ZM17.2227 65.6445H70.8359V41.6445H17.2227V65.6445ZM58.8359 53.6445V104.279H82.8359V53.6445H58.8359ZM62.3507 112.765L65.3292 115.743L82.2997 98.7725L79.3212 95.794L62.3507 112.765ZM73.8145 119.258H88.707V95.2578H73.8145V119.258ZM76.707 107.258V143H100.707V107.258H76.707ZM88.707 131H17.2227V155H88.707V131ZM67.8574 95.2578H35.0938V119.258H67.8574V95.2578ZM23.0938 107.258V125.129H47.0938V107.258H23.0938ZM35.0938 137.129H70.8359V113.129H35.0938V137.129ZM82.8359 125.129V110.236H58.8359V125.129H82.8359ZM79.3212 101.751L76.3427 98.7725L59.3721 115.743L62.3507 118.722L79.3212 101.751ZM106.578 53.6445V41.6445H94.5781V53.6445H106.578ZM178.062 53.6445H190.062V41.6445H178.062V53.6445ZM178.062 143V155H190.062V143H178.062ZM160.191 143H148.191V155H160.191V143ZM160.191 107.258H172.191V95.2578H160.191V107.258ZM124.449 107.258V95.2578H112.449V107.258H124.449ZM124.449 143V155H136.449V143H124.449ZM106.578 143H94.5781V155H106.578V143ZM124.449 71.5156V59.5156H112.449V71.5156H124.449ZM124.449 89.3867H112.449V101.387H124.449V89.3867ZM160.191 89.3867V101.387H172.191V89.3867H160.191ZM160.191 71.5156H172.191V59.5156H160.191V71.5156ZM106.578 65.6445H178.062V41.6445H106.578V65.6445ZM166.062 53.6445V143H190.062V53.6445H166.062ZM178.062 131H160.191V155H178.062V131ZM172.191 143V107.258H148.191V143H172.191ZM160.191 95.2578H124.449V119.258H160.191V95.2578ZM112.449 107.258V143H136.449V107.258H112.449ZM124.449 131H106.578V155H124.449V131ZM118.578 143V53.6445H94.5781V143H118.578ZM112.449 71.5156V89.3867H136.449V71.5156H112.449ZM124.449 101.387H160.191V77.3867H124.449V101.387ZM172.191 89.3867V71.5156H148.191V89.3867H172.191ZM160.191 59.5156H124.449V83.5156H160.191V59.5156ZM249.547 107.258H261.547V95.2578H249.547V107.258ZM195.934 107.258H183.934V119.258H195.934V107.258ZM195.934 53.6445V41.6445H183.934V53.6445H195.934ZM267.418 53.6445H279.418V41.6445H267.418V53.6445ZM267.418 71.5156V83.5156H279.418V71.5156H267.418ZM213.805 71.5156V59.5156H201.805V71.5156H213.805ZM213.805 89.3867H201.805V101.387H213.805V89.3867ZM267.418 89.3867H279.418V77.3867H267.418V89.3867ZM267.418 143V155H279.418V143H267.418ZM195.934 143H183.934V155H195.934V143ZM195.934 125.129V113.129H183.934V125.129H195.934ZM249.547 125.129V137.129H261.547V125.129H249.547ZM249.547 95.2578H195.934V119.258H249.547V95.2578ZM207.934 107.258V53.6445H183.934V107.258H207.934ZM195.934 65.6445H267.418V41.6445H195.934V65.6445ZM255.418 53.6445V71.5156H279.418V53.6445H255.418ZM267.418 59.5156H213.805V83.5156H267.418V59.5156ZM201.805 71.5156V89.3867H225.805V71.5156H201.805ZM213.805 101.387H267.418V77.3867H213.805V101.387ZM255.418 89.3867V143H279.418V89.3867H255.418ZM267.418 131H195.934V155H267.418V131ZM207.934 143V125.129H183.934V143H207.934ZM195.934 137.129H249.547V113.129H195.934V137.129ZM261.547 125.129V107.258H237.547V125.129H261.547ZM303.16 107.258V95.2578H291.16V107.258H303.16ZM303.16 125.129H291.16V137.129H303.16V125.129ZM356.773 125.129H368.773V113.129H356.773V125.129ZM356.773 143V155H368.773V143H356.773ZM285.289 143H273.289V155H285.289V143ZM285.289 53.6445V41.6445H273.289V53.6445H285.289ZM356.773 53.6445H368.773V41.6445H356.773V53.6445ZM356.773 71.5156V83.5156H368.773V71.5156H356.773ZM303.16 71.5156V59.5156H291.16V71.5156H303.16ZM303.16 89.3867H291.16V101.387H303.16V89.3867ZM338.902 89.3867H350.902V77.3867H338.902V89.3867ZM338.902 107.258V119.258H350.902V107.258H338.902ZM291.16 107.258V125.129H315.16V107.258H291.16ZM303.16 137.129H356.773V113.129H303.16V137.129ZM344.773 125.129V143H368.773V125.129H344.773ZM356.773 131H285.289V155H356.773V131ZM297.289 143V53.6445H273.289V143H297.289ZM285.289 65.6445H356.773V41.6445H285.289V65.6445ZM344.773 53.6445V71.5156H368.773V53.6445H344.773ZM356.773 59.5156H303.16V83.5156H356.773V59.5156ZM291.16 71.5156V89.3867H315.16V71.5156H291.16ZM303.16 101.387H338.902V77.3867H303.16V101.387ZM326.902 89.3867V107.258H350.902V89.3867H326.902ZM338.902 95.2578H303.16V119.258H338.902V95.2578ZM428.258 68.5371H416.258V73.5077L419.773 77.0224L428.258 68.5371ZM431.236 71.5156L422.751 80.0009L426.266 83.5156H431.236V71.5156ZM446.129 71.5156H458.129V59.5156H446.129V71.5156ZM446.129 143V155H458.129V143H446.129ZM374.645 143H362.645V155H374.645V143ZM374.645 53.6445V41.6445H362.645V53.6445H374.645ZM428.258 53.6445H440.258V41.6445H428.258V53.6445ZM425.279 71.5156L433.765 63.0303L430.25 59.5156H425.279V71.5156ZM392.516 71.5156V59.5156H380.516V71.5156H392.516ZM392.516 125.129H380.516V137.129H392.516V125.129ZM428.258 125.129V137.129H440.258V125.129H428.258ZM428.258 74.4941H440.258V69.5236L436.743 66.0089L428.258 74.4941ZM419.773 77.0224L422.751 80.0009L439.722 63.0303L436.743 60.0518L419.773 77.0224ZM431.236 83.5156H446.129V59.5156H431.236V83.5156ZM434.129 71.5156V143H458.129V71.5156H434.129ZM446.129 131H374.645V155H446.129V131ZM386.645 143V53.6445H362.645V143H386.645ZM374.645 65.6445H428.258V41.6445H374.645V65.6445ZM416.258 53.6445V68.5371H440.258V53.6445H416.258ZM425.279 59.5156H392.516V83.5156H425.279V59.5156ZM380.516 71.5156V125.129H404.516V71.5156H380.516ZM392.516 137.129H428.258V113.129H392.516V137.129ZM440.258 125.129V74.4941H416.258V125.129H440.258ZM436.743 66.0089L433.765 63.0303L416.794 80.0009L419.773 82.9794L436.743 66.0089ZM553.355 71.5156H565.355V59.5156H553.355V71.5156ZM535.484 71.5156V59.5156H523.484V71.5156H535.484ZM535.484 89.3867H523.484V101.387H535.484V89.3867ZM553.355 89.3867V101.387H565.355V89.3867H553.355ZM517.613 143H505.613V155H517.613V143ZM517.613 53.6445V41.6445H505.613V53.6445H517.613ZM571.227 53.6445H583.227V41.6445H571.227V53.6445ZM571.227 104.279H559.227V109.25L562.741 112.765L571.227 104.279ZM574.205 107.258L565.72 115.743L569.235 119.258H574.205V107.258ZM589.098 107.258H601.098V95.2578H589.098V107.258ZM589.098 143V155H601.098V143H589.098ZM568.248 107.258L576.733 98.7725L573.219 95.2578H568.248V107.258ZM535.484 107.258V95.2578H523.484V107.258H535.484ZM535.484 125.129H523.484V137.129H535.484V125.129ZM571.227 125.129V137.129H583.227V125.129H571.227ZM571.227 110.236H583.227V105.266L579.712 101.751L571.227 110.236ZM553.355 59.5156H535.484V83.5156H553.355V59.5156ZM523.484 71.5156V89.3867H547.484V71.5156H523.484ZM535.484 101.387H553.355V77.3867H535.484V101.387ZM565.355 89.3867V71.5156H541.355V89.3867H565.355ZM529.613 143V53.6445H505.613V143H529.613ZM517.613 65.6445H571.227V41.6445H517.613V65.6445ZM559.227 53.6445V104.279H583.227V53.6445H559.227ZM562.741 112.765L565.72 115.743L582.69 98.7725L579.712 95.794L562.741 112.765ZM574.205 119.258H589.098V95.2578H574.205V119.258ZM577.098 107.258V143H601.098V107.258H577.098ZM589.098 131H517.613V155H589.098V131ZM568.248 95.2578H535.484V119.258H568.248V95.2578ZM523.484 107.258V125.129H547.484V107.258H523.484ZM535.484 137.129H571.227V113.129H535.484V137.129ZM583.227 125.129V110.236H559.227V125.129H583.227ZM579.712 101.751L576.733 98.7725L559.763 115.743L562.741 118.722L579.712 101.751ZM642.711 71.5156H654.711V59.5156H642.711V71.5156ZM624.84 71.5156V59.5156H612.84V71.5156H624.84ZM624.84 89.3867H612.84V101.387H624.84V89.3867ZM642.711 89.3867V101.387H654.711V89.3867H642.711ZM624.84 107.258V95.2578H612.84V107.258H624.84ZM624.84 143V155H636.84V143H624.84ZM606.969 143H594.969V155H606.969V143ZM606.969 53.6445V41.6445H594.969V53.6445H606.969ZM660.582 53.6445H672.582V41.6445H660.582V53.6445ZM660.582 89.3867H648.582V101.387H660.582V89.3867ZM678.453 89.3867H690.453V77.3867H678.453V89.3867ZM678.453 143V155H690.453V143H678.453ZM660.582 143H648.582V155H660.582V143ZM660.582 107.258H672.582V95.2578H660.582V107.258ZM642.711 59.5156H624.84V83.5156H642.711V59.5156ZM612.84 71.5156V89.3867H636.84V71.5156H612.84ZM624.84 101.387H642.711V77.3867H624.84V101.387ZM654.711 89.3867V71.5156H630.711V89.3867H654.711ZM612.84 107.258V143H636.84V107.258H612.84ZM624.84 131H606.969V155H624.84V131ZM618.969 143V53.6445H594.969V143H618.969ZM606.969 65.6445H660.582V41.6445H606.969V65.6445ZM648.582 53.6445V89.3867H672.582V53.6445H648.582ZM660.582 101.387H678.453V77.3867H660.582V101.387ZM666.453 89.3867V143H690.453V89.3867H666.453ZM678.453 131H660.582V155H678.453V131ZM672.582 143V107.258H648.582V143H672.582ZM660.582 95.2578H624.84V119.258H660.582V95.2578ZM714.195 143V155H726.195V143H714.195ZM696.324 143H684.324V155H696.324V143ZM696.324 53.6445V41.6445H684.324V53.6445H696.324ZM714.195 53.6445H726.195V41.6445H714.195V53.6445ZM714.195 131H696.324V155H714.195V131ZM708.324 143V53.6445H684.324V143H708.324ZM696.324 65.6445H714.195V41.6445H696.324V65.6445ZM702.195 53.6445V143H726.195V53.6445H702.195ZM732.066 53.6445V41.6445H720.066V53.6445H732.066ZM803.551 53.6445H815.551V41.6445H803.551V53.6445ZM803.551 143V155H815.551V143H803.551ZM785.68 143H773.68V155H785.68V143ZM785.68 107.258H797.68V95.2578H785.68V107.258ZM749.938 107.258V95.2578H737.938V107.258H749.938ZM749.938 143V155H761.938V143H749.938ZM732.066 143H720.066V155H732.066V143ZM749.938 71.5156V59.5156H737.938V71.5156H749.938ZM749.938 89.3867H737.938V101.387H749.938V89.3867ZM785.68 89.3867V101.387H797.68V89.3867H785.68ZM785.68 71.5156H797.68V59.5156H785.68V71.5156ZM732.066 65.6445H803.551V41.6445H732.066V65.6445ZM791.551 53.6445V143H815.551V53.6445H791.551ZM803.551 131H785.68V155H803.551V131ZM797.68 143V107.258H773.68V143H797.68ZM785.68 95.2578H749.938V119.258H785.68V95.2578ZM737.938 107.258V143H761.938V107.258H737.938ZM749.938 131H732.066V155H749.938V131ZM744.066 143V53.6445H720.066V143H744.066ZM737.938 71.5156V89.3867H761.938V71.5156H737.938ZM749.938 101.387H785.68V77.3867H749.938V101.387ZM797.68 89.3867V71.5156H773.68V89.3867H797.68ZM785.68 59.5156H749.938V83.5156H785.68V59.5156ZM839.293 143V155H851.293V143H839.293ZM821.422 143H809.422V155H821.422V143ZM821.422 53.6445V41.6445H809.422V53.6445H821.422ZM875.035 53.6445H887.035V41.6445H875.035V53.6445ZM875.035 68.5371H863.035V73.5077L866.55 77.0224L875.035 68.5371ZM878.014 71.5156L869.528 80.0009L873.043 83.5156H878.014V71.5156ZM892.906 71.5156H904.906V59.5156H892.906V71.5156ZM892.906 143V155H904.906V143H892.906ZM875.035 143H863.035V155H875.035V143ZM875.035 74.4941H887.035V69.5236L883.52 66.0089L875.035 74.4941ZM872.057 71.5156L880.542 63.0303L877.027 59.5156H872.057V71.5156ZM839.293 71.5156V59.5156H827.293V71.5156H839.293ZM839.293 131H821.422V155H839.293V131ZM833.422 143V53.6445H809.422V143H833.422ZM821.422 65.6445H875.035V41.6445H821.422V65.6445ZM863.035 53.6445V68.5371H887.035V53.6445H863.035ZM866.55 77.0224L869.528 80.0009L886.499 63.0303L883.52 60.0518L866.55 77.0224ZM878.014 83.5156H892.906V59.5156H878.014V83.5156ZM880.906 71.5156V143H904.906V71.5156H880.906ZM892.906 131H875.035V155H892.906V131ZM887.035 143V74.4941H863.035V143H887.035ZM883.52 66.0089L880.542 63.0303L863.571 80.0009L866.55 82.9794L883.52 66.0089ZM872.057 59.5156H839.293V83.5156H872.057V59.5156ZM827.293 71.5156V143H851.293V71.5156H827.293Z" fill="#0A152E" fill-opacity="0.5"/>
<path d="M52.9648 84.5156H35.0938V102.387H52.9648V84.5156ZM17.2227 156V66.6445H70.8359V117.279L73.8145 120.258H88.707V156H17.2227ZM67.8574 120.258H35.0938V138.129H70.8359V123.236L67.8574 120.258ZM106.578 66.6445H178.062V156H160.191V120.258H124.449V156H106.578V66.6445ZM124.449 84.5156V102.387H160.191V84.5156H124.449ZM249.547 120.258H195.934V66.6445H267.418V84.5156H213.805V102.387H267.418V156H195.934V138.129H249.547V120.258ZM303.16 120.258V138.129H356.773V156H285.289V66.6445H356.773V84.5156H303.16V102.387H338.902V120.258H303.16ZM428.258 81.5371L431.236 84.5156H446.129V156H374.645V66.6445H428.258V81.5371ZM425.279 84.5156H392.516V138.129H428.258V87.4941L425.279 84.5156ZM553.355 84.5156H535.484V102.387H553.355V84.5156ZM517.613 156V66.6445H571.227V117.279L574.205 120.258H589.098V156H517.613ZM568.248 120.258H535.484V138.129H571.227V123.236L568.248 120.258ZM642.711 84.5156H624.84V102.387H642.711V84.5156ZM624.84 120.258V156H606.969V66.6445H660.582V102.387H678.453V156H660.582V120.258H624.84ZM714.195 156H696.324V66.6445H714.195V156ZM732.066 66.6445H803.551V156H785.68V120.258H749.938V156H732.066V66.6445ZM749.938 84.5156V102.387H785.68V84.5156H749.938ZM839.293 156H821.422V66.6445H875.035V81.5371L878.014 84.5156H892.906V156H875.035V87.4941L872.057 84.5156H839.293V156Z" fill="#0A152E" fill-opacity="0.62"/>
<path d="M52.9648 84.5156H64.9648V72.5156H52.9648V84.5156ZM35.0938 84.5156V72.5156H23.0938V84.5156H35.0938ZM35.0938 102.387H23.0938V114.387H35.0938V102.387ZM52.9648 102.387V114.387H64.9648V102.387H52.9648ZM17.2227 156H5.22266V168H17.2227V156ZM17.2227 66.6445V54.6445H5.22266V66.6445H17.2227ZM70.8359 66.6445H82.8359V54.6445H70.8359V66.6445ZM70.8359 117.279H58.8359V122.25L62.3507 125.765L70.8359 117.279ZM73.8145 120.258L65.3292 128.743L68.8439 132.258H73.8145V120.258ZM88.707 120.258H100.707V108.258H88.707V120.258ZM88.707 156V168H100.707V156H88.707ZM67.8574 120.258L76.3427 111.773L72.828 108.258H67.8574V120.258ZM35.0938 120.258V108.258H23.0938V120.258H35.0938ZM35.0938 138.129H23.0938V150.129H35.0938V138.129ZM70.8359 138.129V150.129H82.8359V138.129H70.8359ZM70.8359 123.236H82.8359V118.266L79.3212 114.751L70.8359 123.236ZM52.9648 72.5156H35.0938V96.5156H52.9648V72.5156ZM23.0938 84.5156V102.387H47.0938V84.5156H23.0938ZM35.0938 114.387H52.9648V90.3867H35.0938V114.387ZM64.9648 102.387V84.5156H40.9648V102.387H64.9648ZM29.2227 156V66.6445H5.22266V156H29.2227ZM17.2227 78.6445H70.8359V54.6445H17.2227V78.6445ZM58.8359 66.6445V117.279H82.8359V66.6445H58.8359ZM62.3507 125.765L65.3292 128.743L82.2997 111.773L79.3212 108.794L62.3507 125.765ZM73.8145 132.258H88.707V108.258H73.8145V132.258ZM76.707 120.258V156H100.707V120.258H76.707ZM88.707 144H17.2227V168H88.707V144ZM67.8574 108.258H35.0938V132.258H67.8574V108.258ZM23.0938 120.258V138.129H47.0938V120.258H23.0938ZM35.0938 150.129H70.8359V126.129H35.0938V150.129ZM82.8359 138.129V123.236H58.8359V138.129H82.8359ZM79.3212 114.751L76.3427 111.773L59.3721 128.743L62.3507 131.722L79.3212 114.751ZM106.578 66.6445V54.6445H94.5781V66.6445H106.578ZM178.062 66.6445H190.062V54.6445H178.062V66.6445ZM178.062 156V168H190.062V156H178.062ZM160.191 156H148.191V168H160.191V156ZM160.191 120.258H172.191V108.258H160.191V120.258ZM124.449 120.258V108.258H112.449V120.258H124.449ZM124.449 156V168H136.449V156H124.449ZM106.578 156H94.5781V168H106.578V156ZM124.449 84.5156V72.5156H112.449V84.5156H124.449ZM124.449 102.387H112.449V114.387H124.449V102.387ZM160.191 102.387V114.387H172.191V102.387H160.191ZM160.191 84.5156H172.191V72.5156H160.191V84.5156ZM106.578 78.6445H178.062V54.6445H106.578V78.6445ZM166.062 66.6445V156H190.062V66.6445H166.062ZM178.062 144H160.191V168H178.062V144ZM172.191 156V120.258H148.191V156H172.191ZM160.191 108.258H124.449V132.258H160.191V108.258ZM112.449 120.258V156H136.449V120.258H112.449ZM124.449 144H106.578V168H124.449V144ZM118.578 156V66.6445H94.5781V156H118.578ZM112.449 84.5156V102.387H136.449V84.5156H112.449ZM124.449 114.387H160.191V90.3867H124.449V114.387ZM172.191 102.387V84.5156H148.191V102.387H172.191ZM160.191 72.5156H124.449V96.5156H160.191V72.5156ZM249.547 120.258H261.547V108.258H249.547V120.258ZM195.934 120.258H183.934V132.258H195.934V120.258ZM195.934 66.6445V54.6445H183.934V66.6445H195.934ZM267.418 66.6445H279.418V54.6445H267.418V66.6445ZM267.418 84.5156V96.5156H279.418V84.5156H267.418ZM213.805 84.5156V72.5156H201.805V84.5156H213.805ZM213.805 102.387H201.805V114.387H213.805V102.387ZM267.418 102.387H279.418V90.3867H267.418V102.387ZM267.418 156V168H279.418V156H267.418ZM195.934 156H183.934V168H195.934V156ZM195.934 138.129V126.129H183.934V138.129H195.934ZM249.547 138.129V150.129H261.547V138.129H249.547ZM249.547 108.258H195.934V132.258H249.547V108.258ZM207.934 120.258V66.6445H183.934V120.258H207.934ZM195.934 78.6445H267.418V54.6445H195.934V78.6445ZM255.418 66.6445V84.5156H279.418V66.6445H255.418ZM267.418 72.5156H213.805V96.5156H267.418V72.5156ZM201.805 84.5156V102.387H225.805V84.5156H201.805ZM213.805 114.387H267.418V90.3867H213.805V114.387ZM255.418 102.387V156H279.418V102.387H255.418ZM267.418 144H195.934V168H267.418V144ZM207.934 156V138.129H183.934V156H207.934ZM195.934 150.129H249.547V126.129H195.934V150.129ZM261.547 138.129V120.258H237.547V138.129H261.547ZM303.16 120.258V108.258H291.16V120.258H303.16ZM303.16 138.129H291.16V150.129H303.16V138.129ZM356.773 138.129H368.773V126.129H356.773V138.129ZM356.773 156V168H368.773V156H356.773ZM285.289 156H273.289V168H285.289V156ZM285.289 66.6445V54.6445H273.289V66.6445H285.289ZM356.773 66.6445H368.773V54.6445H356.773V66.6445ZM356.773 84.5156V96.5156H368.773V84.5156H356.773ZM303.16 84.5156V72.5156H291.16V84.5156H303.16ZM303.16 102.387H291.16V114.387H303.16V102.387ZM338.902 102.387H350.902V90.3867H338.902V102.387ZM338.902 120.258V132.258H350.902V120.258H338.902ZM291.16 120.258V138.129H315.16V120.258H291.16ZM303.16 150.129H356.773V126.129H303.16V150.129ZM344.773 138.129V156H368.773V138.129H344.773ZM356.773 144H285.289V168H356.773V144ZM297.289 156V66.6445H273.289V156H297.289ZM285.289 78.6445H356.773V54.6445H285.289V78.6445ZM344.773 66.6445V84.5156H368.773V66.6445H344.773ZM356.773 72.5156H303.16V96.5156H356.773V72.5156ZM291.16 84.5156V102.387H315.16V84.5156H291.16ZM303.16 114.387H338.902V90.3867H303.16V114.387ZM326.902 102.387V120.258H350.902V102.387H326.902ZM338.902 108.258H303.16V132.258H338.902V108.258ZM428.258 81.5371H416.258V86.5077L419.773 90.0224L428.258 81.5371ZM431.236 84.5156L422.751 93.0009L426.266 96.5156H431.236V84.5156ZM446.129 84.5156H458.129V72.5156H446.129V84.5156ZM446.129 156V168H458.129V156H446.129ZM374.645 156H362.645V168H374.645V156ZM374.645 66.6445V54.6445H362.645V66.6445H374.645ZM428.258 66.6445H440.258V54.6445H428.258V66.6445ZM425.279 84.5156L433.765 76.0303L430.25 72.5156H425.279V84.5156ZM392.516 84.5156V72.5156H380.516V84.5156H392.516ZM392.516 138.129H380.516V150.129H392.516V138.129ZM428.258 138.129V150.129H440.258V138.129H428.258ZM428.258 87.4941H440.258V82.5236L436.743 79.0089L428.258 87.4941ZM419.773 90.0224L422.751 93.0009L439.722 76.0303L436.743 73.0518L419.773 90.0224ZM431.236 96.5156H446.129V72.5156H431.236V96.5156ZM434.129 84.5156V156H458.129V84.5156H434.129ZM446.129 144H374.645V168H446.129V144ZM386.645 156V66.6445H362.645V156H386.645ZM374.645 78.6445H428.258V54.6445H374.645V78.6445ZM416.258 66.6445V81.5371H440.258V66.6445H416.258ZM425.279 72.5156H392.516V96.5156H425.279V72.5156ZM380.516 84.5156V138.129H404.516V84.5156H380.516ZM392.516 150.129H428.258V126.129H392.516V150.129ZM440.258 138.129V87.4941H416.258V138.129H440.258ZM436.743 79.0089L433.765 76.0303L416.794 93.0009L419.773 95.9794L436.743 79.0089ZM553.355 84.5156H565.355V72.5156H553.355V84.5156ZM535.484 84.5156V72.5156H523.484V84.5156H535.484ZM535.484 102.387H523.484V114.387H535.484V102.387ZM553.355 102.387V114.387H565.355V102.387H553.355ZM517.613 156H505.613V168H517.613V156ZM517.613 66.6445V54.6445H505.613V66.6445H517.613ZM571.227 66.6445H583.227V54.6445H571.227V66.6445ZM571.227 117.279H559.227V122.25L562.741 125.765L571.227 117.279ZM574.205 120.258L565.72 128.743L569.235 132.258H574.205V120.258ZM589.098 120.258H601.098V108.258H589.098V120.258ZM589.098 156V168H601.098V156H589.098ZM568.248 120.258L576.733 111.773L573.219 108.258H568.248V120.258ZM535.484 120.258V108.258H523.484V120.258H535.484ZM535.484 138.129H523.484V150.129H535.484V138.129ZM571.227 138.129V150.129H583.227V138.129H571.227ZM571.227 123.236H583.227V118.266L579.712 114.751L571.227 123.236ZM553.355 72.5156H535.484V96.5156H553.355V72.5156ZM523.484 84.5156V102.387H547.484V84.5156H523.484ZM535.484 114.387H553.355V90.3867H535.484V114.387ZM565.355 102.387V84.5156H541.355V102.387H565.355ZM529.613 156V66.6445H505.613V156H529.613ZM517.613 78.6445H571.227V54.6445H517.613V78.6445ZM559.227 66.6445V117.279H583.227V66.6445H559.227ZM562.741 125.765L565.72 128.743L582.69 111.773L579.712 108.794L562.741 125.765ZM574.205 132.258H589.098V108.258H574.205V132.258ZM577.098 120.258V156H601.098V120.258H577.098ZM589.098 144H517.613V168H589.098V144ZM568.248 108.258H535.484V132.258H568.248V108.258ZM523.484 120.258V138.129H547.484V120.258H523.484ZM535.484 150.129H571.227V126.129H535.484V150.129ZM583.227 138.129V123.236H559.227V138.129H583.227ZM579.712 114.751L576.733 111.773L559.763 128.743L562.741 131.722L579.712 114.751ZM642.711 84.5156H654.711V72.5156H642.711V84.5156ZM624.84 84.5156V72.5156H612.84V84.5156H624.84ZM624.84 102.387H612.84V114.387H624.84V102.387ZM642.711 102.387V114.387H654.711V102.387H642.711ZM624.84 120.258V108.258H612.84V120.258H624.84ZM624.84 156V168H636.84V156H624.84ZM606.969 156H594.969V168H606.969V156ZM606.969 66.6445V54.6445H594.969V66.6445H606.969ZM660.582 66.6445H672.582V54.6445H660.582V66.6445ZM660.582 102.387H648.582V114.387H660.582V102.387ZM678.453 102.387H690.453V90.3867H678.453V102.387ZM678.453 156V168H690.453V156H678.453ZM660.582 156H648.582V168H660.582V156ZM660.582 120.258H672.582V108.258H660.582V120.258ZM642.711 72.5156H624.84V96.5156H642.711V72.5156ZM612.84 84.5156V102.387H636.84V84.5156H612.84ZM624.84 114.387H642.711V90.3867H624.84V114.387ZM654.711 102.387V84.5156H630.711V102.387H654.711ZM612.84 120.258V156H636.84V120.258H612.84ZM624.84 144H606.969V168H624.84V144ZM618.969 156V66.6445H594.969V156H618.969ZM606.969 78.6445H660.582V54.6445H606.969V78.6445ZM648.582 66.6445V102.387H672.582V66.6445H648.582ZM660.582 114.387H678.453V90.3867H660.582V114.387ZM666.453 102.387V156H690.453V102.387H666.453ZM678.453 144H660.582V168H678.453V144ZM672.582 156V120.258H648.582V156H672.582ZM660.582 108.258H624.84V132.258H660.582V108.258ZM714.195 156V168H726.195V156H714.195ZM696.324 156H684.324V168H696.324V156ZM696.324 66.6445V54.6445H684.324V66.6445H696.324ZM714.195 66.6445H726.195V54.6445H714.195V66.6445ZM714.195 144H696.324V168H714.195V144ZM708.324 156V66.6445H684.324V156H708.324ZM696.324 78.6445H714.195V54.6445H696.324V78.6445ZM702.195 66.6445V156H726.195V66.6445H702.195ZM732.066 66.6445V54.6445H720.066V66.6445H732.066ZM803.551 66.6445H815.551V54.6445H803.551V66.6445ZM803.551 156V168H815.551V156H803.551ZM785.68 156H773.68V168H785.68V156ZM785.68 120.258H797.68V108.258H785.68V120.258ZM749.938 120.258V108.258H737.938V120.258H749.938ZM749.938 156V168H761.938V156H749.938ZM732.066 156H720.066V168H732.066V156ZM749.938 84.5156V72.5156H737.938V84.5156H749.938ZM749.938 102.387H737.938V114.387H749.938V102.387ZM785.68 102.387V114.387H797.68V102.387H785.68ZM785.68 84.5156H797.68V72.5156H785.68V84.5156ZM732.066 78.6445H803.551V54.6445H732.066V78.6445ZM791.551 66.6445V156H815.551V66.6445H791.551ZM803.551 144H785.68V168H803.551V144ZM797.68 156V120.258H773.68V156H797.68ZM785.68 108.258H749.938V132.258H785.68V108.258ZM737.938 120.258V156H761.938V120.258H737.938ZM749.938 144H732.066V168H749.938V144ZM744.066 156V66.6445H720.066V156H744.066ZM737.938 84.5156V102.387H761.938V84.5156H737.938ZM749.938 114.387H785.68V90.3867H749.938V114.387ZM797.68 102.387V84.5156H773.68V102.387H797.68ZM785.68 72.5156H749.938V96.5156H785.68V72.5156ZM839.293 156V168H851.293V156H839.293ZM821.422 156H809.422V168H821.422V156ZM821.422 66.6445V54.6445H809.422V66.6445H821.422ZM875.035 66.6445H887.035V54.6445H875.035V66.6445ZM875.035 81.5371H863.035V86.5077L866.55 90.0224L875.035 81.5371ZM878.014 84.5156L869.528 93.0009L873.043 96.5156H878.014V84.5156ZM892.906 84.5156H904.906V72.5156H892.906V84.5156ZM892.906 156V168H904.906V156H892.906ZM875.035 156H863.035V168H875.035V156ZM875.035 87.4941H887.035V82.5236L883.52 79.0089L875.035 87.4941ZM872.057 84.5156L880.542 76.0303L877.027 72.5156H872.057V84.5156ZM839.293 84.5156V72.5156H827.293V84.5156H839.293ZM839.293 144H821.422V168H839.293V144ZM833.422 156V66.6445H809.422V156H833.422ZM821.422 78.6445H875.035V54.6445H821.422V78.6445ZM863.035 66.6445V81.5371H887.035V66.6445H863.035ZM866.55 90.0224L869.528 93.0009L886.499 76.0303L883.52 73.0518L866.55 90.0224ZM878.014 96.5156H892.906V72.5156H878.014V96.5156ZM880.906 84.5156V156H904.906V84.5156H880.906ZM892.906 144H875.035V168H892.906V144ZM887.035 156V87.4941H863.035V156H887.035ZM883.52 79.0089L880.542 76.0303L863.571 93.0009L866.55 95.9794L883.52 79.0089ZM872.057 72.5156H839.293V96.5156H872.057V72.5156ZM827.293 84.5156V156H851.293V84.5156H827.293Z" fill="#0A152E" fill-opacity="0.5"/>
<path d="M52.9648 71.5156H35.0938V89.3867H52.9648V71.5156ZM17.2227 143V53.6445H70.8359V104.279L73.8145 107.258H88.707V143H17.2227ZM67.8574 107.258H35.0938V125.129H70.8359V110.236L67.8574 107.258ZM106.578 53.6445H178.062V143H160.191V107.258H124.449V143H106.578V53.6445ZM124.449 71.5156V89.3867H160.191V71.5156H124.449ZM249.547 107.258H195.934V53.6445H267.418V71.5156H213.805V89.3867H267.418V143H195.934V125.129H249.547V107.258ZM303.16 107.258V125.129H356.773V143H285.289V53.6445H356.773V71.5156H303.16V89.3867H338.902V107.258H303.16ZM428.258 68.5371L431.236 71.5156H446.129V143H374.645V53.6445H428.258V68.5371ZM425.279 71.5156H392.516V125.129H428.258V74.4941L425.279 71.5156ZM553.355 71.5156H535.484V89.3867H553.355V71.5156ZM517.613 143V53.6445H571.227V104.279L574.205 107.258H589.098V143H517.613ZM568.248 107.258H535.484V125.129H571.227V110.236L568.248 107.258ZM642.711 71.5156H624.84V89.3867H642.711V71.5156ZM624.84 107.258V143H606.969V53.6445H660.582V89.3867H678.453V143H660.582V107.258H624.84ZM714.195 143H696.324V53.6445H714.195V143ZM732.066 53.6445H803.551V143H785.68V107.258H749.938V143H732.066V53.6445ZM749.938 71.5156V89.3867H785.68V71.5156H749.938ZM839.293 143H821.422V53.6445H875.035V68.5371L878.014 71.5156H892.906V143H875.035V74.4941L872.057 71.5156H839.293V143Z" fill="white"/>
</svg>
