<svg width="293" height="100" viewBox="0 0 293 100" fill="none" xmlns="http://www.w3.org/2000/svg">
<rect x="0.5" y="9.29102" width="292" height="90.2088" rx="14.5" fill="white" fill-opacity="0.72" stroke="black"/>
<rect x="0.5" y="0.5" width="292" height="90.2088" rx="14.5" fill="white" stroke="black"/>
<path d="M76.1875 54.2109H71.793V45.4219H67.3984V63H63.0039V41.0273H84.9766V63H80.582V45.4219H76.1875V54.2109ZM93.7656 63H89.3711V41.0273H93.7656V63ZM102.555 63H98.1602V41.0273H111.344V44.6895L112.076 45.4219H115.738V63H111.344V46.1543L110.611 45.4219H102.555V63ZM120.133 41.0273H142.105V45.4219H133.316V63H128.922V45.4219H120.133V41.0273ZM164.078 63H159.684V41.0273H172.867V44.6895L173.6 45.4219H177.262V63H172.867V46.1543L172.135 45.4219H164.078V63ZM186.051 54.2109V63H181.656V41.0273H199.234V45.4219H186.051V49.8164H194.84V54.2109H186.051ZM203.629 41.0273H225.602V45.4219H216.812V63H212.418V45.4219H203.629V41.0273Z" fill="black"/>
<path d="M76.1875 54.2109V55.2109H77.1875V54.2109H76.1875ZM71.793 54.2109H70.793V55.2109H71.793V54.2109ZM71.793 45.4219H72.793V44.4219H71.793V45.4219ZM67.3984 45.4219V44.4219H66.3984V45.4219H67.3984ZM67.3984 63V64H68.3984V63H67.3984ZM63.0039 63H62.0039V64H63.0039V63ZM63.0039 41.0273V40.0273H62.0039V41.0273H63.0039ZM84.9766 41.0273H85.9766V40.0273H84.9766V41.0273ZM84.9766 63V64H85.9766V63H84.9766ZM80.582 63H79.582V64H80.582V63ZM80.582 45.4219H81.582V44.4219H80.582V45.4219ZM76.1875 45.4219V44.4219H75.1875V45.4219H76.1875ZM76.1875 53.2109H71.793V55.2109H76.1875V53.2109ZM72.793 54.2109V45.4219H70.793V54.2109H72.793ZM71.793 44.4219H67.3984V46.4219H71.793V44.4219ZM66.3984 45.4219V63H68.3984V45.4219H66.3984ZM67.3984 62H63.0039V64H67.3984V62ZM64.0039 63V41.0273H62.0039V63H64.0039ZM63.0039 42.0273H84.9766V40.0273H63.0039V42.0273ZM83.9766 41.0273V63H85.9766V41.0273H83.9766ZM84.9766 62H80.582V64H84.9766V62ZM81.582 63V45.4219H79.582V63H81.582ZM80.582 44.4219H76.1875V46.4219H80.582V44.4219ZM75.1875 45.4219V54.2109H77.1875V45.4219H75.1875ZM93.7656 63V64H94.7656V63H93.7656ZM89.3711 63H88.3711V64H89.3711V63ZM89.3711 41.0273V40.0273H88.3711V41.0273H89.3711ZM93.7656 41.0273H94.7656V40.0273H93.7656V41.0273ZM93.7656 62H89.3711V64H93.7656V62ZM90.3711 63V41.0273H88.3711V63H90.3711ZM89.3711 42.0273H93.7656V40.0273H89.3711V42.0273ZM92.7656 41.0273V63H94.7656V41.0273H92.7656ZM102.555 63V64H103.555V63H102.555ZM98.1602 63H97.1602V64H98.1602V63ZM98.1602 41.0273V40.0273H97.1602V41.0273H98.1602ZM111.344 41.0273H112.344V40.0273H111.344V41.0273ZM111.344 44.6895H110.344V45.1037L110.637 45.3966L111.344 44.6895ZM112.076 45.4219L111.369 46.129L111.662 46.4219H112.076V45.4219ZM115.738 45.4219H116.738V44.4219H115.738V45.4219ZM115.738 63V64H116.738V63H115.738ZM111.344 63H110.344V64H111.344V63ZM111.344 46.1543H112.344V45.7401L112.051 45.4472L111.344 46.1543ZM110.611 45.4219L111.318 44.7148L111.026 44.4219H110.611V45.4219ZM102.555 45.4219V44.4219H101.555V45.4219H102.555ZM102.555 62H98.1602V64H102.555V62ZM99.1602 63V41.0273H97.1602V63H99.1602ZM98.1602 42.0273H111.344V40.0273H98.1602V42.0273ZM110.344 41.0273V44.6895H112.344V41.0273H110.344ZM110.637 45.3966L111.369 46.129L112.783 44.7148L112.051 43.9823L110.637 45.3966ZM112.076 46.4219H115.738V44.4219H112.076V46.4219ZM114.738 45.4219V63H116.738V45.4219H114.738ZM115.738 62H111.344V64H115.738V62ZM112.344 63V46.1543H110.344V63H112.344ZM112.051 45.4472L111.318 44.7148L109.904 46.129L110.637 46.8614L112.051 45.4472ZM110.611 44.4219H102.555V46.4219H110.611V44.4219ZM101.555 45.4219V63H103.555V45.4219H101.555ZM120.133 41.0273V40.0273H119.133V41.0273H120.133ZM142.105 41.0273H143.105V40.0273H142.105V41.0273ZM142.105 45.4219V46.4219H143.105V45.4219H142.105ZM133.316 45.4219V44.4219H132.316V45.4219H133.316ZM133.316 63V64H134.316V63H133.316ZM128.922 63H127.922V64H128.922V63ZM128.922 45.4219H129.922V44.4219H128.922V45.4219ZM120.133 45.4219H119.133V46.4219H120.133V45.4219ZM120.133 42.0273H142.105V40.0273H120.133V42.0273ZM141.105 41.0273V45.4219H143.105V41.0273H141.105ZM142.105 44.4219H133.316V46.4219H142.105V44.4219ZM132.316 45.4219V63H134.316V45.4219H132.316ZM133.316 62H128.922V64H133.316V62ZM129.922 63V45.4219H127.922V63H129.922ZM128.922 44.4219H120.133V46.4219H128.922V44.4219ZM121.133 45.4219V41.0273H119.133V45.4219H121.133ZM164.078 63V64H165.078V63H164.078ZM159.684 63H158.684V64H159.684V63ZM159.684 41.0273V40.0273H158.684V41.0273H159.684ZM172.867 41.0273H173.867V40.0273H172.867V41.0273ZM172.867 44.6895H171.867V45.1037L172.16 45.3966L172.867 44.6895ZM173.6 45.4219L172.893 46.129L173.185 46.4219H173.6V45.4219ZM177.262 45.4219H178.262V44.4219H177.262V45.4219ZM177.262 63V64H178.262V63H177.262ZM172.867 63H171.867V64H172.867V63ZM172.867 46.1543H173.867V45.7401L173.574 45.4472L172.867 46.1543ZM172.135 45.4219L172.842 44.7148L172.549 44.4219H172.135V45.4219ZM164.078 45.4219V44.4219H163.078V45.4219H164.078ZM164.078 62H159.684V64H164.078V62ZM160.684 63V41.0273H158.684V63H160.684ZM159.684 42.0273H172.867V40.0273H159.684V42.0273ZM171.867 41.0273V44.6895H173.867V41.0273H171.867ZM172.16 45.3966L172.893 46.129L174.307 44.7148L173.574 43.9823L172.16 45.3966ZM173.6 46.4219H177.262V44.4219H173.6V46.4219ZM176.262 45.4219V63H178.262V45.4219H176.262ZM177.262 62H172.867V64H177.262V62ZM173.867 63V46.1543H171.867V63H173.867ZM173.574 45.4472L172.842 44.7148L171.428 46.129L172.16 46.8614L173.574 45.4472ZM172.135 44.4219H164.078V46.4219H172.135V44.4219ZM163.078 45.4219V63H165.078V45.4219H163.078ZM186.051 54.2109V53.2109H185.051V54.2109H186.051ZM186.051 63V64H187.051V63H186.051ZM181.656 63H180.656V64H181.656V63ZM181.656 41.0273V40.0273H180.656V41.0273H181.656ZM199.234 41.0273H200.234V40.0273H199.234V41.0273ZM199.234 45.4219V46.4219H200.234V45.4219H199.234ZM186.051 45.4219V44.4219H185.051V45.4219H186.051ZM186.051 49.8164H185.051V50.8164H186.051V49.8164ZM194.84 49.8164H195.84V48.8164H194.84V49.8164ZM194.84 54.2109V55.2109H195.84V54.2109H194.84ZM185.051 54.2109V63H187.051V54.2109H185.051ZM186.051 62H181.656V64H186.051V62ZM182.656 63V41.0273H180.656V63H182.656ZM181.656 42.0273H199.234V40.0273H181.656V42.0273ZM198.234 41.0273V45.4219H200.234V41.0273H198.234ZM199.234 44.4219H186.051V46.4219H199.234V44.4219ZM185.051 45.4219V49.8164H187.051V45.4219H185.051ZM186.051 50.8164H194.84V48.8164H186.051V50.8164ZM193.84 49.8164V54.2109H195.84V49.8164H193.84ZM194.84 53.2109H186.051V55.2109H194.84V53.2109ZM203.629 41.0273V40.0273H202.629V41.0273H203.629ZM225.602 41.0273H226.602V40.0273H225.602V41.0273ZM225.602 45.4219V46.4219H226.602V45.4219H225.602ZM216.812 45.4219V44.4219H215.812V45.4219H216.812ZM216.812 63V64H217.812V63H216.812ZM212.418 63H211.418V64H212.418V63ZM212.418 45.4219H213.418V44.4219H212.418V45.4219ZM203.629 45.4219H202.629V46.4219H203.629V45.4219ZM203.629 42.0273H225.602V40.0273H203.629V42.0273ZM224.602 41.0273V45.4219H226.602V41.0273H224.602ZM225.602 44.4219H216.812V46.4219H225.602V44.4219ZM215.812 45.4219V63H217.812V45.4219H215.812ZM216.812 62H212.418V64H216.812V62ZM213.418 63V45.4219H211.418V63H213.418ZM212.418 44.4219H203.629V46.4219H212.418V44.4219ZM204.629 45.4219V41.0273H202.629V45.4219H204.629Z" fill="black"/>
</svg>
