<svg width="329" height="100" viewBox="0 0 329 100" fill="none" xmlns="http://www.w3.org/2000/svg">
<rect y="8.79126" width="329" height="91.2088" rx="15" fill="#0052FF" fill-opacity="0.67"/>
<rect width="329" height="91.2088" rx="15" fill="#0052FF"/>
<path d="M95.1875 54.2109H90.793V45.4219H86.3984V63H82.0039V41.0273H103.977V63H99.582V45.4219H95.1875V54.2109ZM112.766 63H108.371V41.0273H112.766V63ZM121.555 63H117.16V41.0273H130.344V44.6895L131.076 45.4219H134.738V63H130.344V46.1543L129.611 45.4219H121.555V63ZM139.133 41.0273H161.105V45.4219H152.316V63H147.922V45.4219H139.133V41.0273ZM183.078 63H178.684V41.0273H191.867V44.6895L192.6 45.4219H196.262V63H191.867V46.1543L191.135 45.4219H183.078V63ZM218.234 63H200.656V41.0273H218.234V63ZM213.84 45.4219H205.051V58.6055H213.84V45.4219ZM235.812 58.6055H240.207V41.0273H244.602V63H222.629V41.0273H227.023V58.6055H231.418V49.8164H235.812V58.6055Z" fill="white"/>
</svg>
