<svg width="76" height="76" viewBox="0 0 76 76" fill="none" xmlns="http://www.w3.org/2000/svg">
<path d="M38 0C58.9876 0 76 17.0124 76 38C76 58.9876 58.9876 76 38 76C17.0124 76 0 58.9876 0 38C0 17.0124 17.0124 0 38 0ZM51.1083 53.4891C51.8072 51.3446 55.0818 29.9721 55.4866 25.7607C55.6089 24.4852 55.2057 23.6376 54.416 23.2593C53.461 22.8 52.0468 23.0297 50.4062 23.6211C48.1559 24.4323 19.3883 36.6469 17.7262 37.354C16.15 38.0231 14.6597 38.7534 14.6597 39.8108C14.6597 40.5543 15.1009 40.9723 16.3169 41.4068C17.5824 41.8578 20.7695 42.8243 22.6513 43.3431C24.4637 43.8437 26.5273 43.4092 27.6838 42.6905C28.9097 41.9289 43.0573 32.4619 44.0734 31.6325C45.0878 30.8031 45.8974 31.8655 45.068 32.6965C44.2386 33.5259 34.5271 42.9516 33.2467 44.2568C31.692 45.8412 32.7957 47.4835 33.8382 48.141C35.0294 48.8911 43.5959 54.6374 44.8863 55.5593C46.1766 56.4812 47.4851 56.8992 48.683 56.8992C49.8808 56.8992 50.5119 55.3214 51.1083 53.4891Z" fill="#0052FF" fill-opacity="0.74"/>
</svg>
