<svg width="83" height="68" viewBox="0 0 83 68" fill="none" xmlns="http://www.w3.org/2000/svg">
<path d="M56.7879 0C46.8653 0 38.7963 8.05979 38.7963 17.9711C38.7963 18.5666 38.9454 19.1493 39.0037 19.7319C26.735 18.5602 15.8856 12.6561 8.51659 3.62529C8.17309 3.19155 7.64164 2.95849 7.08426 2.99734C6.53337 3.03618 6.0408 3.35339 5.7686 3.83244C4.21961 6.49315 3.3317 9.55522 3.3317 12.8439C3.3317 16.8252 4.75754 20.4699 6.96112 23.4608C6.53337 23.273 6.06673 23.1695 5.6649 22.9429C5.15289 22.671 4.53719 22.6839 4.03814 22.9817C3.5391 23.2795 3.23448 23.8168 3.228 24.393V24.6002C3.228 30.7049 6.39078 36.0069 11.0572 39.2567C11.0053 39.2502 10.9535 39.2696 10.9016 39.2567C10.3313 39.1596 9.75448 39.3602 9.37209 39.794C8.98971 40.2277 8.86657 40.8298 9.03508 41.38C10.8887 47.1352 15.6199 51.5308 21.4788 53.1363C16.8124 55.9071 11.4007 57.5385 5.5612 57.5385C4.29738 57.5385 3.08542 57.4737 1.87993 57.3313C1.1022 57.2277 0.35687 57.6809 0.0976256 58.4189C-0.1681 59.1569 0.12355 59.9791 0.791104 60.3869C8.27679 65.1839 17.1624 68 26.7155 68C42.1989 68 54.3445 61.5392 62.4913 52.3077C70.638 43.0762 74.8832 31.0868 74.8832 19.8873C74.8832 19.4147 74.8443 18.9551 74.8313 18.489C77.8709 16.1649 80.5865 13.4395 82.7123 10.2544C83.1336 9.63937 83.0882 8.81721 82.6022 8.24753C82.1226 7.67784 81.3124 7.50305 80.6384 7.82026C79.7829 8.20221 78.7848 8.24105 77.8904 8.54532C79.07 6.9722 80.081 5.27609 80.6902 3.36634C80.8976 2.71249 80.6708 1.99391 80.1329 1.56664C79.5949 1.14585 78.8431 1.09406 78.2533 1.45011C75.4211 3.12681 72.2842 4.30503 68.9724 5.02361C65.7578 2.0198 61.5256 0 56.7879 0ZM56.7879 3.31455C61.0201 3.31455 64.8439 5.12072 67.5206 7.97563C67.9224 8.38995 68.5122 8.56474 69.0761 8.44174C71.2408 8.01447 73.2953 7.38652 75.298 6.5773C74.1443 8.131 72.7185 9.45811 71.0463 10.4615C70.288 10.8305 69.9316 11.7045 70.2103 12.5008C70.4825 13.2906 71.3121 13.7502 72.1352 13.5689C73.7943 13.3682 75.272 12.695 76.8534 12.2742C75.4341 13.8085 73.8786 15.1938 72.187 16.4174C71.7269 16.754 71.4741 17.2978 71.513 17.8675C71.5389 18.5407 71.5648 19.2075 71.5648 19.8873C71.5648 30.2452 67.5854 41.4901 60.0025 50.0807C52.4196 58.6714 41.2851 64.6855 26.7155 64.6855C20.0983 64.6855 13.8505 63.2224 8.20549 60.6458C15.2051 60.1085 21.6603 57.6356 26.8711 53.5506C27.4155 53.1169 27.6294 52.3918 27.409 51.7315C27.1887 51.0712 26.5794 50.618 25.886 50.5986C20.4159 50.5015 15.8338 47.3229 13.3904 42.8302C13.4811 42.8302 13.5589 42.8302 13.6496 42.8302C15.2893 42.8302 16.9096 42.623 18.4197 42.2087C19.1456 41.995 19.6447 41.3218 19.6187 40.5644C19.5928 39.8069 19.0549 39.1596 18.316 38.9977C12.4117 37.8065 7.98514 33.003 6.96112 27.0343C8.63325 27.6104 10.3443 28.0636 12.1979 28.1219C12.9561 28.1672 13.6431 27.6946 13.8765 26.976C14.1098 26.2574 13.8246 25.4676 13.183 25.0663C9.24247 22.4315 6.65003 17.9452 6.65003 12.8439C6.65003 10.9535 7.14259 9.21858 7.7907 7.56131C16.0865 16.6569 27.7007 22.6969 40.8184 23.3572C41.3369 23.3831 41.8425 23.1695 42.1795 22.7746C42.5165 22.3732 42.6461 21.8423 42.5295 21.3374C42.2767 20.2628 42.1147 19.1234 42.1147 17.9711C42.1147 9.85301 48.6606 3.31455 56.7879 3.31455Z" fill="#0052FF" fill-opacity="0.74"/>
</svg>
